# This file uses centimeters as units for non-parametric coordinates.

mtllib whiteKnight_0.mtl
g default
v 12.281241 0.813278 20.718870
v 15.218760 0.813278 20.718870
v 15.218759 7.315857 17.781130
v 12.281241 7.315859 17.781130
v 12.281241 2.113794 20.718868
v 15.218760 2.113794 20.718868
v 12.281241 6.275446 17.781130
v 15.218759 6.275444 17.781130
v 15.218760 0.813278 19.910776
v 12.281241 0.813278 19.910776
v 12.281241 2.113794 19.910774
v 12.281241 6.275448 19.910774
v 12.281241 7.315861 19.910774
v 15.218760 7.315859 19.910774
v 15.218760 6.275446 19.910774
v 15.218760 2.113794 19.910774
v 15.218760 0.813278 18.638920
v 12.281241 0.813278 18.638920
v 12.281241 2.113794 18.638920
v 12.281241 6.275446 18.638918
v 12.281241 7.315859 18.638918
v 15.218759 7.315857 18.638918
v 15.218759 6.275444 18.638918
v 15.218760 2.113792 18.638920
vn 0.000000 0.000001 1.000000
vn 0.000000 0.000001 1.000000
vn 0.000000 0.000001 1.000000
vn 0.000000 0.000001 1.000000
vn 0.000001 1.000000 -0.000001
vn 0.000001 1.000000 -0.000001
vn 0.000001 1.000000 0.000000
vn 0.000001 1.000000 0.000000
vn -1.000000 0.000000 0.000000
vn -1.000000 -0.000000 0.000000
vn -1.000000 0.000000 0.000000
vn -1.000000 0.000000 0.000000
vn 0.000000 0.000000 -1.000000
vn 0.000000 0.000000 -1.000000
vn 0.000000 0.000000 -1.000000
vn 0.000000 0.000000 -1.000000
vn 1.000000 0.000000 -0.000000
vn 1.000000 0.000000 -0.000000
vn 1.000000 0.000000 0.000000
vn 1.000000 0.000000 0.000000
vn 0.000000 -1.000000 0.000000
vn 0.000000 -1.000000 0.000000
vn 0.000000 -1.000000 0.000000
vn 0.000000 -1.000000 0.000000
vn -1.000000 0.000000 0.000000
vn -1.000000 0.000000 0.000000
vn -1.000000 0.000000 0.000000
vn -1.000000 0.000000 0.000000
vn 1.000000 -0.000000 0.000000
vn 1.000000 -0.000000 0.000000
vn 1.000000 -0.000000 -0.000000
vn 1.000000 -0.000000 0.000000
vn 0.000000 -1.000000 0.000000
vn 0.000000 -1.000000 0.000000
vn -1.000000 0.000000 0.000000
vn -1.000000 0.000001 0.000000
vn -1.000000 -0.000000 0.000000
vn -1.000000 0.000000 0.000000
vn 0.000001 1.000000 -0.000002
vn 0.000001 1.000000 -0.000002
vn 1.000000 0.000000 -0.000001
vn 1.000000 0.000000 -0.000000
vn 1.000000 0.000000 -0.000000
vn 1.000000 0.000000 0.000000
vn 0.000000 0.000000 1.000000
vn 0.000000 0.000000 1.000000
vn 0.000000 0.000000 1.000000
vn 0.000000 0.000000 1.000000
vn 0.000000 1.000000 0.000000
vn 0.000000 1.000000 0.000000
vn 0.000000 1.000000 0.000000
vn 0.000000 1.000000 0.000000
vn 0.000000 -0.000000 -1.000000
vn 0.000000 -0.000000 -1.000000
vn 0.000000 -0.000000 -1.000000
vn 0.000000 -0.000000 -1.000000
vn -0.000001 -1.000000 0.000000
vn -0.000001 -1.000000 0.000000
vn -0.000001 -1.000000 0.000000
vn -0.000001 -1.000000 0.000000
vn 0.000000 0.000000 -1.000000
vn 0.000000 0.000000 -1.000000
vn 0.000000 0.000000 -1.000000
vn 0.000000 0.000000 -1.000000
vn 0.000000 0.000000 1.000000
vn 0.000000 0.000000 1.000000
vn 0.000000 0.000000 1.000000
vn 0.000000 0.000000 1.000000
s off
g whiteKnight_0
usemtl lambert2SG
f 6//1 5//2 1//3 2//4
s 1
f 21//5 22//6 3//7 4//8
s 2
f 7//9 20//10 21//11 4//12
s off
f 8//13 7//14 4//15 3//16
s 3
f 22//17 23//18 8//19 3//20
s 4
f 2//21 1//22 10//23 9//24
s 2
f 11//25 10//26 1//27 5//28
s 3
f 2//29 9//30 16//31 6//32
s 4
f 9//24 10//23 18//33 17//34
s 2
f 19//35 18//36 10//26 11//25
f 20//10 19//35 11//25 12//37
f 21//11 20//10 12//37 13//38
s 1
f 13//39 14//40 22//6 21//5
s 3
f 14//41 15//42 23//18 22//17
f 15//42 16//31 24//43 23//18
f 16//31 9//30 17//44 24//43
s off
f 12//45 11//46 16//47 15//48
f 11//49 5//50 6//51 16//52
f 19//53 20//54 23//55 24//56
f 20//57 7//58 8//59 23//60
f 18//61 19//62 24//63 17//64
f 13//65 12//66 15//67 14//68
