# This file uses centimeters as units for non-parametric coordinates.

mtllib kingWhite.mtl
g default
v 1.280844 0.813278 17.781464
v 4.218362 0.813278 17.781464
v 1.280844 0.813278 20.719206
v 4.218362 0.813278 20.719206
v 2.455851 9.750351 17.781467
v 2.455851 0.813278 17.781464
v 2.455851 0.813278 20.719206
v 2.455851 9.750349 20.719204
v 3.043355 0.813278 20.719206
v 3.043355 0.813278 17.781464
v 3.043355 9.750351 17.781467
v 3.043355 9.750349 20.719204
v 4.218362 0.813278 19.544109
v 4.218362 9.750351 19.544109
v 3.043355 9.750351 19.544109
v 2.455851 9.750351 19.544109
v 1.280844 9.750351 19.544109
v 1.280844 0.813278 19.544109
v 2.455851 0.813278 19.544109
v 3.043355 0.813278 19.544109
v 4.218362 9.750351 18.956562
v 4.218362 0.813278 18.956562
v 3.043355 0.813278 18.956562
v 2.455851 0.813278 18.956562
v 1.280844 0.813278 18.956562
v 1.280844 9.750351 18.956562
v 2.455851 9.750351 18.956562
v 3.043355 9.750351 18.956562
v 1.280844 7.962936 17.781467
v 2.455851 7.962936 17.781467
v 3.043355 7.962936 17.781467
v 4.218362 7.962936 17.781466
v 4.218362 7.962934 18.956562
v 4.218362 7.962934 19.544109
v 4.218362 7.962934 20.719204
v 3.043355 7.962933 20.719204
v 2.455851 7.962933 20.719204
v 1.280844 7.962934 20.719204
v 1.280844 7.962936 19.544109
v 1.280844 7.962936 18.956562
v 2.455851 7.962934 19.544109
v 3.043355 7.962934 19.544109
v 3.043355 7.962934 18.956562
v 2.455851 7.962934 18.956562
v 1.280844 7.247971 17.781467
v 2.455851 7.247971 17.781467
v 3.043355 7.247971 17.781467
v 4.218362 7.247971 17.781466
v 4.218362 7.247969 18.956562
v 4.218362 7.247969 19.544109
v 4.218362 7.247969 20.719204
v 3.043354 7.247967 20.719204
v 2.455851 7.247967 20.719204
v 1.280844 7.247969 20.719204
v 1.280844 7.247971 19.544109
v 1.280844 7.247971 18.956562
vn 0.000000 0.000001 -1.000000
vn 0.000000 0.000001 -1.000000
vn 0.000000 0.000001 -1.000000
vn 0.000000 0.000001 -1.000000
vn 1.000000 0.000000 0.000000
vn 1.000000 0.000000 0.000000
vn 1.000000 0.000000 0.000000
vn 1.000000 0.000000 0.000000
vn -1.000000 -0.000000 -0.000000
vn -1.000000 -0.000000 -0.000000
vn -1.000000 -0.000000 -0.000000
vn -1.000000 -0.000000 -0.000000
vn 0.000000 -1.000000 0.000000
vn 0.000000 -1.000000 0.000000
vn 0.000000 -1.000000 0.000000
vn 0.000000 -1.000000 0.000000
vn 0.000000 0.000000 1.000000
vn 0.000000 0.000000 1.000000
vn 0.000000 0.000000 1.000000
vn 0.000000 0.000000 1.000000
vn -0.000001 0.000000 -1.000000
vn -0.000001 0.000000 -1.000000
vn -0.000001 0.000000 -1.000000
vn -0.000001 0.000000 -1.000000
vn 0.000000 -1.000000 0.000000
vn 0.000000 -1.000000 0.000000
vn 0.000000 -1.000000 0.000000
vn 0.000000 -1.000000 0.000000
vn 0.000000 0.000000 1.000000
vn 0.000000 0.000000 1.000000
vn 0.000000 0.000000 1.000000
vn 0.000000 0.000000 1.000000
vn 1.000000 0.000000 0.000000
vn 1.000000 0.000000 0.000000
vn 1.000000 0.000000 0.000000
vn 1.000000 0.000000 0.000000
vn -1.000000 0.000000 0.000000
vn -1.000000 0.000000 0.000000
vn -1.000000 0.000000 0.000000
vn -1.000000 0.000000 0.000000
vn 0.000000 -1.000000 0.000000
vn 0.000000 -1.000000 0.000000
vn 0.000000 -1.000000 0.000000
vn 0.000000 -1.000000 0.000000
vn 0.000000 -1.000000 0.000000
vn 0.000000 -1.000000 0.000000
vn 0.000000 -1.000000 0.000000
vn 0.000000 -1.000000 0.000000
vn 0.000000 0.000001 -1.000000
vn 0.000000 0.000001 -1.000000
vn 0.000000 0.000001 -1.000000
vn 0.000000 0.000001 -1.000000
vn 0.000000 -1.000000 0.000000
vn 0.000000 -1.000000 0.000000
vn 0.000000 -1.000000 0.000000
vn 0.000000 -1.000000 0.000000
vn 0.000000 -1.000000 0.000000
vn 0.000000 -1.000000 0.000000
vn 0.000000 -1.000000 0.000000
vn 0.000000 -1.000000 0.000000
vn 0.000000 0.000000 1.000000
vn 0.000000 0.000000 1.000000
vn 0.000000 0.000000 1.000000
vn 0.000000 0.000000 1.000000
vn 0.000000 1.000000 0.000001
vn 0.000000 1.000000 0.000001
vn 0.000000 1.000000 0.000001
vn 0.000000 1.000000 0.000001
vn 0.000000 1.000000 0.000000
vn 0.000000 1.000000 0.000000
vn 0.000000 1.000000 0.000000
vn 0.000000 1.000000 0.000000
vn 1.000000 0.000000 0.000000
vn 1.000000 0.000000 0.000000
vn 1.000000 0.000000 0.000000
vn 1.000000 0.000000 0.000000
vn 0.000000 1.000000 0.000000
vn 0.000000 1.000000 0.000000
vn 0.000000 1.000000 0.000000
vn 0.000000 1.000000 0.000000
vn 0.000000 1.000000 0.000000
vn 0.000000 1.000000 0.000000
vn 0.000000 1.000000 0.000000
vn 0.000000 1.000000 0.000000
vn 0.000000 1.000000 0.000000
vn 0.000000 1.000000 0.000000
vn 0.000000 1.000000 0.000000
vn 0.000000 1.000000 0.000000
vn -1.000000 0.000000 0.000000
vn -1.000000 0.000000 0.000000
vn -1.000000 0.000000 0.000000
vn -1.000000 0.000000 0.000000
vn 0.000000 -1.000000 0.000000
vn 0.000000 -1.000000 0.000000
vn 0.000000 -1.000000 0.000000
vn 0.000000 -1.000000 0.000000
vn 0.000000 -1.000000 0.000000
vn 0.000000 -1.000000 0.000000
vn 0.000000 -1.000000 0.000000
vn 0.000000 -1.000000 0.000000
vn 0.000000 -1.000000 0.000000
vn 0.000000 -1.000000 0.000000
vn 0.000000 -1.000000 0.000000
vn 0.000000 -1.000000 0.000000
vn 0.000000 0.000000 -1.000000
vn 0.000000 0.000000 -1.000000
vn 0.000000 0.000000 -1.000000
vn 0.000000 0.000000 -1.000000
vn 1.000000 0.000000 0.000000
vn 1.000000 0.000000 0.000000
vn 1.000000 0.000000 0.000000
vn 1.000000 0.000000 0.000000
vn 0.000000 0.000000 1.000000
vn 0.000000 0.000000 1.000000
vn 0.000000 0.000000 1.000000
vn 0.000000 0.000000 1.000000
vn -1.000000 0.000000 0.000000
vn -1.000000 0.000000 0.000000
vn -1.000000 0.000000 0.000000
vn -1.000000 0.000000 0.000000
vn -1.000000 0.000000 0.000000
vn -1.000000 0.000000 0.000000
vn -1.000000 0.000000 0.000000
vn -1.000000 0.000000 0.000000
vn 0.000000 0.000000 1.000000
vn 0.000000 0.000000 1.000000
vn 0.000000 0.000000 1.000000
vn 0.000000 0.000000 1.000000
vn 0.000000 0.000000 1.000000
vn 0.000000 0.000000 1.000000
vn 0.000000 0.000000 1.000000
vn 0.000000 0.000000 1.000000
vn 1.000000 0.000000 0.000000
vn 1.000000 0.000000 0.000000
vn 1.000000 0.000000 0.000000
vn 1.000000 0.000000 0.000000
vn 1.000000 0.000000 0.000000
vn 1.000000 0.000000 0.000000
vn 1.000000 0.000000 0.000000
vn 1.000000 0.000000 0.000000
vn 0.000000 0.000000 -1.000000
vn 0.000000 0.000000 -1.000000
vn 0.000000 0.000000 -1.000000
vn 0.000000 0.000000 -1.000000
vn 0.000000 0.000000 -1.000000
vn 0.000000 0.000000 -1.000000
vn 0.000000 0.000000 -1.000000
vn 0.000000 0.000000 -1.000000
vn -1.000000 0.000000 0.000000
vn -1.000000 0.000000 0.000000
vn -1.000000 0.000000 0.000000
vn -1.000000 0.000000 0.000000
vn 0.000000 1.000000 0.000002
vn 0.000000 1.000000 0.000002
vn 0.000000 1.000000 0.000002
vn 0.000000 1.000000 0.000002
vn 0.000001 1.000000 0.000001
vn 0.000001 1.000000 0.000001
vn 0.000001 1.000000 0.000001
vn 0.000001 1.000000 0.000001
vn -0.000001 1.000000 0.000001
vn -0.000001 1.000000 0.000001
vn -0.000001 1.000000 0.000001
vn -0.000001 1.000000 0.000001
vn 0.000002 1.000000 0.000001
vn 0.000002 1.000000 0.000001
vn 0.000002 1.000000 0.000001
vn 0.000002 1.000000 0.000001
vn 0.000000 0.000000 -1.000000
vn 0.000000 0.000000 -1.000000
vn 0.000000 0.000000 -1.000000
vn 0.000000 0.000000 -1.000000
vn -0.000001 0.000000 -1.000000
vn -0.000001 0.000000 -1.000000
vn 1.000000 0.000000 0.000000
vn 1.000000 0.000000 0.000000
vn 1.000000 0.000000 0.000000
vn 1.000000 0.000000 0.000000
vn 1.000000 0.000000 0.000000
vn 1.000000 0.000000 0.000000
vn 0.000000 0.000000 1.000000
vn 0.000000 0.000000 1.000000
vn 0.000000 0.000000 1.000000
vn 0.000000 0.000000 1.000000
vn 0.000000 0.000000 1.000000
vn 0.000000 0.000000 1.000000
vn -1.000000 0.000000 0.000000
vn -1.000000 0.000000 0.000000
vn -1.000000 0.000000 0.000000
vn -1.000000 0.000000 0.000000
vn -1.000000 0.000000 0.000000
vn -1.000000 0.000000 0.000000
s 1
g kingWhite
usemtl lambert2SG
f 45//1 46//2 6//3 1//4
s 2
f 50//5 51//6 4//7 13//8
s 3
f 54//9 55//10 18//11 3//12
s off
f 3//13 18//14 19//15 7//16
s 4
f 53//17 54//18 3//19 7//20
s 5
f 47//21 48//22 2//23 10//24
s off
f 9//25 20//26 13//27 4//28
s 6
f 51//29 52//30 9//31 4//32
s 7
f 48//33 49//34 22//35 2//36
s 8
f 25//37 56//38 45//39 1//40
s off
f 6//41 24//42 25//43 1//44
f 22//45 23//46 10//47 2//48
s 9
f 6//49 46//50 47//51 10//52
s off
f 23//53 24//54 6//55 10//56
f 9//57 7//58 19//59 20//60
s 10
f 52//61 53//62 7//63 9//64
s off
f 15//65 16//66 8//67 12//68
f 11//69 5//70 27//71 28//72
s 11
f 49//73 50//74 13//75 22//76
s off
f 15//77 14//78 21//79 28//80
f 15//81 28//82 27//83 16//84
f 26//85 17//86 16//87 27//88
s 12
f 25//89 18//90 55//91 56//92
s off
f 19//93 18//94 25//95 24//96
f 22//97 13//98 20//99 23//100
f 19//101 24//102 23//103 20//104
f 31//105 30//106 5//107 11//108
f 14//109 34//110 33//111 21//112
f 8//113 37//114 36//115 12//116
f 40//117 39//118 17//119 26//120
f 8//121 16//122 41//123 37//124
f 16//125 17//126 39//127 41//128
f 14//129 15//130 42//131 34//132
f 15//133 12//134 36//135 42//136
f 11//137 28//138 43//139 31//140
f 28//141 21//142 33//143 43//144
f 26//145 27//146 44//147 40//148
f 27//149 5//150 30//151 44//152
f 32//153 31//154 43//155 33//156
f 30//157 29//158 40//159 44//160
f 35//161 34//162 42//163 36//164
f 38//165 37//166 41//167 39//168
s 1
f 29//169 30//170 46//2 45//1
s 9
f 47//51 46//50 30//171 31//172
s 5
f 31//173 32//174 48//22 47//21
s 7
f 32//175 33//176 49//34 48//33
s 11
f 33//177 34//178 50//74 49//73
s 2
f 34//179 35//180 51//6 50//5
s 6
f 35//181 36//182 52//30 51//29
s 10
f 36//183 37//184 53//62 52//61
s 4
f 37//185 38//186 54//18 53//17
s 3
f 38//187 39//188 55//10 54//9
s 12
f 56//92 55//91 39//189 40//190
s 8
f 45//39 56//38 40//191 29//192
